<svg width="422" height="422" xmlns="http://www.w3.org/2000/svg" xmlns:xlink="http://www.w3.org/1999/xlink" overflow="hidden"><defs><clipPath id="clip0"><rect x="0" y="0" width="422" height="422"/></clipPath><linearGradient x1="240" y1="223" x2="240" y2="147" gradientUnits="userSpaceOnUse" spreadMethod="reflect" id="fill1"><stop offset="0" stop-color="#B9DAFB"/><stop offset="0.4" stop-color="#D3E7FC" stop-opacity="0.909804"/><stop offset="1" stop-color="#E9F2FD"/></linearGradient><linearGradient x1="240" y1="314" x2="240" y2="384" gradientUnits="userSpaceOnUse" spreadMethod="reflect" id="fill2"><stop offset="0" stop-color="#B9DAFB"/><stop offset="0.5" stop-color="#D3E7FC"/><stop offset="1" stop-color="#E9F2FD"/></linearGradient></defs><g clip-path="url(#clip0)"><rect x="0" y="0" width="422" height="422" fill="#FFFFFF"/><rect x="4.49996" y="11.5" width="414" height="400" stroke="#FFFFFF" stroke-width="1.33228" stroke-miterlimit="8" fill="#FFFFFF"/><path d="M91 283 389.142 283" stroke="#000000" stroke-width="3.99684" stroke-miterlimit="8" stroke-dasharray="11.9905 3.99684" fill="none" fill-rule="evenodd"/><rect x="91" y="147" width="298" height="76" fill="url(#fill1)"/><rect x="91" y="314" width="298" height="70" fill="url(#fill2)"/><path d="M91 223 389.142 223" stroke="#000000" stroke-width="3.99684" stroke-miterlimit="8" fill="none" fill-rule="evenodd"/><path d="M91 314 389.142 314" stroke="#000000" stroke-width="3.99684" stroke-miterlimit="8" fill="none" fill-rule="evenodd"/><path d="M91 73 389.142 73.0001" stroke="#000000" stroke-width="3.99684" stroke-miterlimit="8" stroke-dasharray="11.9905 3.99684" fill="none" fill-rule="evenodd"/><path d="M1.49882-4.79521e-07 1.49892 314.404-1.49872 314.404-1.49882 4.79521e-07ZM7.49418 312.905 0.000104904 327.894-7.49398 312.905Z" transform="matrix(1 0 0 -1 90.5 384.394)"/><text font-family="Times New Roman,Times New Roman_MSFontService,sans-serif" font-weight="400" font-size="21" transform="matrix(-1.83697e-16 -1 1 -1.83697e-16 58.7843 255)">Energy <tspan font-size="21" x="-4.59257e-15" y="25.0008">(eV)</tspan></text><path d="M250.998 90.9857 250.998 295.768 247.002 295.768 247.002 90.9857ZM239.008 92.9842 249 73 258.992 92.9842ZM258.992 293.77 249 313.754 239.008 293.77Z" fill="#FF0000"/><path d="M346.998 90.9858 346.999 205.392 343.002 205.392 343.002 90.9858ZM335.008 92.9842 345 73 354.992 92.9842ZM354.992 203.394 345 223.378 335.008 203.394Z" fill="#FF0000"/><path d="M291.998 240.986 291.999 295.39 288.002 295.39 288.002 240.986ZM280.008 242.984 290 223 299.992 242.984ZM299.992 293.392 290 313.376 280.008 293.392Z" fill="#FF0000"/><rect x="211" y="103" width="33" height="35" fill="#FFFFFF"/><text font-family="Cambria Math,Cambria Math_MSFontService,sans-serif" font-weight="400" font-size="24" transform="translate(211.828 131)">ğ¼ğ¸</text><rect x="298" y="103" width="41.0001" height="35" fill="#FFFFFF"/><text font-family="Cambria Math,Cambria Math_MSFontService,sans-serif" font-weight="400" font-size="24" transform="translate(300.763 131)">ğ¸ğ´</text><rect x="299" y="243" width="33" height="37.0001" fill="#FFFFFF"/><text font-family="Cambria Math,Cambria Math_MSFontService,sans-serif" font-weight="400" font-size="24" transform="translate(299.575 271)">E<tspan font-size="18" x="12.7966" y="5">ğ‘”</tspan></text><rect x="105" y="266" width="33" height="35.0001" fill="#FFFFFF"/><text font-family="Cambria Math,Cambria Math_MSFontService,sans-serif" font-weight="400" font-size="24" transform="translate(105.889 294)">E<tspan font-size="18" x="13.8224" y="5">ğ¹</tspan></text><rect x="122" y="37" width="33" height="34" fill="#FFFFFF"/><text font-family="Cambria Math,Cambria Math_MSFontService,sans-serif" font-weight="400" font-size="24" transform="translate(110.753 64)">E<tspan font-size="18" x="13.8224" y="5">VAC</tspan></text></g></svg>